<?xml version="1.0" encoding="UTF-8" standalone="no"?>
<!-- Created with Inkscape (http://www.inkscape.org/) -->

<svg
   width="50"
   height="50"
   viewBox="0 0 13.229166 13.229167"
   version="1.1"
   id="svg1"
   inkscape:version="1.3 (0e150ed6c4, 2023-07-21)"
   sodipodi:docname="tick.svg"
   xmlns:inkscape="http://www.inkscape.org/namespaces/inkscape"
   xmlns:sodipodi="http://sodipodi.sourceforge.net/DTD/sodipodi-0.dtd"
   xmlns="http://www.w3.org/2000/svg"
   xmlns:svg="http://www.w3.org/2000/svg">
  <sodipodi:namedview
     id="namedview1"
     pagecolor="#ffffff"
     bordercolor="#000000"
     borderopacity="0.25"
     inkscape:showpageshadow="2"
     inkscape:pageopacity="0.0"
     inkscape:pagecheckerboard="0"
     inkscape:deskcolor="#d1d1d1"
     inkscape:document-units="px"
     inkscape:zoom="11.313708"
     inkscape:cx="28.195883"
     inkscape:cy="28.240077"
     inkscape:window-width="2560"
     inkscape:window-height="1525"
     inkscape:window-x="0"
     inkscape:window-y="0"
     inkscape:window-maximized="1"
     inkscape:current-layer="layer1"
     showgrid="false" />
  <defs
     id="defs1" />
  <g
     inkscape:label="Layer 1"
     inkscape:groupmode="layer"
     id="layer1">
    <rect
       style="fill:#000000;stroke:#cccccc;stroke-width:13.2292;stroke-linecap:round;stroke-linejoin:round"
       id="rect2"
       height="12.35571"
       x="-3.0672252"
       y="-1.3889321" />
    <path
       d="m 3.3407416,5.7382363 q 0.3511828,0 0.5312766,0.5763001 0.3601875,1.0805625 0.5132672,1.0805625 0.1170609,0 0.2431265,-0.1800937 2.5303173,-3.7189361 4.6824377,-5.2947565 0.9094734,-0.6663469 1.7739234,-0.6663469 1.143596,0 1.377717,0.072037 0.09905,0.027014 0.09905,0.2251172 0,0.1620844 -0.207108,0.4052109 -5.7900142,6.6454597 -6.8975908,8.6445006 -0.3781969,0.684356 -1.7469094,0.684356 -0.4502344,0 -0.9454923,-0.234122 Q 2.5573337,10.942946 2.0440665,9.6732849 1.395729,8.0704505 1.395729,6.8638223 q 0,-0.4412297 0.6303281,-0.7293797 0.8644501,-0.3962063 1.2966751,-0.3962063 z"
       id="text5"
       style="font-size:18.4416px;line-height:1.25;fill:#ffffff;stroke-width:0.461041"
       transform="scale(0.94783208,1.0550392)"
       aria-label="✔️" />
  </g>
</svg>
